<?xml version="1.0" encoding="UTF-8" standalone="no"?>
<svg width="64px" height="64px" viewBox="0 0 64 64" version="1.1" xmlns="http://www.w3.org/2000/svg" xmlns:xlink="http://www.w3.org/1999/xlink" xmlns:sketch="http://www.bohemiancoding.com/sketch/ns">
    <!-- Generator: Sketch 3.3.3 (12081) - http://www.bohemiancoding.com/sketch -->
    <title>logo</title>
    <desc>Created with Sketch.</desc>
    <defs></defs>
    <g id="Page-1" stroke="none" stroke-width="1" fill="none" fill-rule="evenodd" sketch:type="MSPage">
        <g id="logo" sketch:type="MSArtboardGroup" fill="#3DBD64">
            <g id="Imported-Layers" sketch:type="MSLayerGroup" transform="translate(4.812500, 3.000000)">
                <path d="M10.1308939,11.6258352 C11.4057114,11.6258352 12.477849,10.711657 12.6802707,9.45232071 L13.7593795,2.57499332 C13.8842147,1.77939866 14.1431802,1.03741203 14.509424,0.368538976 L0.670392628,12.1562316 C1.45774573,11.8113318 2.31571403,11.6258352 3.19588675,11.6258352 L10.1308939,11.6258352" id="Fill-1" sketch:type="MSShapeGroup"></path>
                <path d="M39.4664129,4.00445434 L32.8855146,4.00445434 C31.885154,4.00445434 30.9293314,3.5895412 30.2459001,2.85840535 C28.5411948,1.03495768 26.1573184,0 23.6619035,0 L20.3911414,0 C18.599813,0 17.0980458,1.28517149 16.8201033,3.05591537 L15.7400908,9.93866815 C15.2941952,12.7150468 12.9356214,14.7260579 10.1308939,14.7260579 L3.19588675,14.7260579 C2.26730324,14.7260579 1.38583957,15.1285702 0.777412749,15.8305122 C0.305956197,16.3746013 0.0366631054,17.0558753 0,17.7631136 L2.83106303,36.363804 C3.2822516,39.3531938 5.54374555,41.7463073 8.50119302,42.3644143 L20.8252894,44.9400535 C22.546648,45.2998085 24.2217904,44.1555679 24.5139334,42.4203474 L26.1534455,32.6815145 L26.1364049,32.7840802 C25.4018519,37.1932428 28.7999021,41.2071269 33.2672498,41.2071269 L38.9224047,41.2071269 C40.2075499,41.2071269 41.1806713,42.3688062 40.9561743,43.6349889 L40.2748086,47.47849 C40.0965278,48.483608 39.2233262,49.2160356 38.2030849,49.2160356 C36.8985755,49.2160356 35.9084135,48.0405345 36.1294249,46.7540713 C36.2457399,46.0770601 35.7245816,45.4583073 35.038052,45.4583073 L28.7902199,45.4583073 C28.2322694,45.4583073 27.7601674,45.8737372 27.6914886,46.4276437 C27.6816774,46.5074744 27.6738025,46.5782628 27.6691551,46.6326459 C27.1589699,52.6796303 31.9317575,58 38.1309206,58 C43.2332888,58 47.5965856,54.3285612 48.4717236,49.2987082 L53.455195,20.6583341 C54.9724537,11.9647929 48.2859553,4.00445434 39.4664129,4.00445434 L39.4664129,4.00445434 Z M43.5863649,28.786343 L43.5614494,28.9237862 L35.0411503,28.9237862 C35.5575321,26.2110913 36.8953481,24.66098 39.8375623,24.66098 C42.0194044,24.66098 43.9767495,26.6382762 43.5863649,28.786343 L43.5863649,28.786343 Z" id="Fill-2" sketch:type="MSShapeGroup"></path>
            </g>
        </g>
    </g>
</svg>